<svg id="Layer_1" data-name="Layer 1" xmlns="http://www.w3.org/2000/svg" viewBox="0 0 360 280.65"><defs><style>.cls-1{fill:#fff;}</style></defs><polygon class="cls-1" points="148.18 156.53 125.36 173.11 153.15 193.29 161.86 166.47 148.18 156.53"/><polygon class="cls-1" points="157.25 196.28 180.07 212.85 202.87 196.28 180.07 179.7 157.25 196.28"/><polygon class="cls-1" points="168.78 145.06 85.13 84.28 104.65 124.91 132.4 145.06 168.78 145.06"/><polygon class="cls-1" points="177.53 118.26 60.66 33.34 80.18 73.98 170.57 139.66 177.53 118.26"/><polygon class="cls-1" points="77.23 0 63.45 28.67 105.79 59.44 77.23 0"/><polygon class="cls-1" points="198.27 166.47 206.99 193.29 234.76 173.11 211.94 156.53 198.27 166.47"/><polygon class="cls-1" points="227.73 145.06 255.47 124.91 274.99 84.28 191.35 145.06 227.73 145.06"/><polygon class="cls-1" points="182.6 118.26 189.55 139.66 279.94 73.98 299.47 33.34 182.6 118.26"/><polygon class="cls-1" points="282.9 0 254.33 59.44 296.68 28.67 282.9 0"/><path class="cls-1" d="M167.39,160.53a12.68,12.68,0,1,1,12.68,12.68A12.68,12.68,0,0,1,167.39,160.53Z" transform="translate(0 0)"/><path class="cls-1" d="M0,254H9.17v14.59a7.12,7.12,0,0,0,.73,3.75c1.17,2,3.49,2.55,5.35,2.55a6.31,6.31,0,0,0,4.41-1.42c1.56-1.45,1.6-3.78,1.6-5V254h9.17v13.47c0,3-.07,6.18-1.49,8.37-2.8,4.37-9.57,4.77-13.65,4.77-5.72,0-9-.8-10.88-2-4-2-4.41-6-4.41-8.11V254Z" transform="translate(0 0)"/><path class="cls-1" d="M32.88,273h8.37v6.7H32.88Z" transform="translate(0 0)"/><path class="cls-1" d="M55.28,260.66a1.44,1.44,0,0,0,.29.91c.62.8,3.2,1.39,4.62,1.68,1.75.4,3.53.73,5.28,1.12a17.71,17.71,0,0,1,3.31.92,6.3,6.3,0,0,1,4.51,6.15,8,8,0,0,1-1.34,4.4c-2.15,3.24-6.48,4.66-13.4,4.66-2.58,0-7.71-.22-10.73-2.91a8.28,8.28,0,0,1-2.7-5.5l9.07-.25c.32,1.67,2,3,5.67,3a7.1,7.1,0,0,0,3.21-.62,2.46,2.46,0,0,0,1.27-2,2.13,2.13,0,0,0-1.71-2c-1.13-.37-6.92-1.39-8.19-1.68a26.72,26.72,0,0,1-2.95-.8c-1-.36-5.09-1.82-5.09-6.52a7.23,7.23,0,0,1,2.07-5c2.88-3,8.05-3.27,10.88-3.27a27.82,27.82,0,0,1,7.83,1,7.66,7.66,0,0,1,5.68,6.51l-9,.51c-.22-.84-.65-2.36-4.51-2.36C58.12,258.59,55.28,258.77,55.28,260.66Z" transform="translate(0 0)"/><path class="cls-1" d="M76.29,273h8.37v6.7H76.29Z" transform="translate(0 0)"/><path class="cls-1" d="M118.08,269.87h-6l3-8.7Zm-19.37,9.87H108.8l1.38-4.19H120l1.38,4.19h10L120.26,254H109.78Z" transform="translate(0 0)"/><path class="cls-1" d="M144,254v25.7h-9.21V254Z" transform="translate(0 0)"/><path class="cls-1" d="M160.07,259.86h7.65a3.39,3.39,0,0,1,2.36.73,2.19,2.19,0,0,1,.66,1.64c0,2.29-2.33,2.33-3.75,2.33h-6.92Zm-9.21,19.88h9.21v-9.36H165l5.27,9.36h10.2L174,269.47a7.39,7.39,0,0,0,4.3-2.4,7.7,7.7,0,0,0,1.64-4.88,8.32,8.32,0,0,0-3-6.51c-2.15-1.57-4.92-1.61-7.17-1.64h-18.9Z" transform="translate(0 0)"/><path class="cls-1" d="M194.19,254h25.19v5.79h-16v4.91h14.67v5.75H203.4v9.25h-9.21V254Z" transform="translate(0 0)"/><path class="cls-1" d="M240,258.81c6.29.07,7.53,5.24,7.53,8,0,2.58-1,5.93-3.82,7.35a8,8,0,0,1-3.71.73c-5.57,0-7.72-4.11-7.72-8.08C232.29,263.32,234.22,258.73,240,258.81Zm-.55-5.72c-4.55.07-10.67.91-14.27,6a13.89,13.89,0,0,0-2.37,8,12.25,12.25,0,0,0,2.44,7.75c1.9,2.59,5.57,5.76,14.53,5.76,4.65,0,8.81-.66,12.3-3.43a12,12,0,0,0,3.06-3.45,13.66,13.66,0,0,0,1.85-7,12.78,12.78,0,0,0-8-12.19A25,25,0,0,0,239.46,253.09Z" transform="translate(0 0)"/><path class="cls-1" d="M271.35,259.86H279a3.41,3.41,0,0,1,2.37.73,2.21,2.21,0,0,1,.65,1.64c0,2.29-2.33,2.33-3.75,2.33h-6.91v-4.7Zm-9.21,19.88h9.21v-9.36h4.91l5.28,9.36h10.19l-6.44-10.27a7.37,7.37,0,0,0,4.29-2.4,7.7,7.7,0,0,0,1.64-4.88,8.29,8.29,0,0,0-3-6.51c-2.15-1.57-4.91-1.61-7.17-1.64H262.14v25.7Z" transform="translate(0 0)"/><path class="cls-1" d="M305.13,266.89c0,3.89,2.29,7.93,7.57,7.93a8.29,8.29,0,0,0,5.2-1.71,5.5,5.5,0,0,0,1.86-2.58l8.77.91a11.79,11.79,0,0,1-1.46,3.2c-3,4.66-8.91,6-14.56,6a24.82,24.82,0,0,1-7.35-.95c-5.28-1.64-9.64-5.68-9.64-12.74,0-5,2.61-14,17.25-14,12.48,0,14.45,5.67,15.29,8.11l-8.52,1.53a5.65,5.65,0,0,0-2.15-2.58,8.44,8.44,0,0,0-4.4-1.17C308.84,258.84,305.13,261.43,305.13,266.89Z" transform="translate(0 0)"/><path class="cls-1" d="M359.64,254v5.79H341.76V264h16.53v5.83H341.73v4.07H360v5.83H332.56V254Z" transform="translate(0 0)"/></svg>