<?xml version="1.0" standalone="no"?>
<!DOCTYPE svg PUBLIC "-//W3C//DTD SVG 20010904//EN"
 "http://www.w3.org/TR/2001/REC-SVG-20010904/DTD/svg10.dtd">
<svg version="1.0" xmlns="http://www.w3.org/2000/svg"
 width="700.000000pt" height="700.000000pt" viewBox="0 0 700.000000 700.000000"
 preserveAspectRatio="xMidYMid meet">
<metadata>
Created by potrace 1.11, written by Peter Selinger 2001-2013
</metadata>
<g transform="translate(0.000000,700.000000) scale(0.100000,-0.100000)"
fill="#000000" stroke="none">
<path d="M3259 6786 c-2 -2 -47 -7 -99 -11 -52 -4 -97 -8 -100 -10 -3 -2 -30
-6 -60 -10 -320 -39 -774 -185 -1080 -347 -149 -79 -374 -217 -425 -260 -5 -5
-35 -27 -65 -49 -157 -117 -334 -279 -488 -449 -117 -129 -199 -235 -302 -390
-27 -41 -53 -80 -57 -86 -50 -68 -200 -359 -258 -499 -72 -173 -157 -444 -185
-590 -6 -33 -14 -68 -16 -77 -4 -15 34 -32 121 -54 32 -8 251 -77 258 -81 5
-3 -2 -11 -15 -18 -27 -14 -383 -229 -445 -268 l-42 -26 96 -128 c53 -71 99
-130 102 -133 4 -4 181 -239 217 -288 2 -3 102 42 314 138 184 85 235 107 238
105 3 -3 -25 -65 -121 -265 -129 -270 -156 -333 -150 -344 4 -6 73 -97 153
-202 80 -106 155 -205 167 -220 73 -97 372 -491 448 -590 50 -65 163 -215 253
-334 89 -118 173 -228 186 -245 39 -48 196 -257 225 -297 l26 -37 568 0 567 0
0 545 0 544 210 0 210 0 0 -545 0 -545 568 1 567 0 106 142 c113 150 160 213
563 742 138 181 296 389 351 462 367 483 432 569 438 579 4 7 -16 61 -44 120
-180 383 -229 487 -227 489 3 2 238 -103 403 -180 92 -42 148 -66 150 -63 3 5
319 423 367 486 l48 63 -232 141 c-128 77 -244 147 -257 155 -24 15 -20 17
135 64 87 27 176 54 196 59 35 10 37 12 32 43 -26 139 -142 537 -165 561 -5 6
-9 16 -9 24 0 7 -11 38 -25 68 -14 30 -25 57 -25 60 0 15 -150 301 -208 397
-236 387 -545 724 -915 998 -264 195 -604 372 -924 480 -208 70 -502 137 -678
154 -38 4 -78 9 -90 12 -23 6 -570 14 -576 9z m-609 -2066 c0 -11 -49 -289
-125 -710 -24 -135 -47 -261 -50 -280 -3 -19 -10 -60 -15 -90 -11 -58 -13 -70
-25 -135 -4 -22 -9 -51 -11 -65 -3 -14 -9 -47 -14 -75 -18 -90 -51 -279 -56
-325 -4 -25 -8 -47 -9 -48 -2 -2 -104 -4 -227 -3 -208 0 -223 1 -222 18 1 23
14 103 19 123 2 8 6 33 10 55 8 58 13 87 35 205 20 111 24 131 35 195 3 22 13
74 20 115 8 41 25 140 39 220 30 170 27 151 72 400 19 107 37 206 39 220 20
119 29 166 36 175 7 10 449 15 449 5z m954 -422 c-2 -13 -7 -36 -9 -53 -3 -16
-14 -79 -25 -140 -11 -60 -22 -123 -25 -140 -22 -126 -21 -123 -73 -139 -85
-26 -409 -138 -515 -178 -26 -10 -20 -14 125 -80 84 -38 182 -83 218 -99 36
-17 82 -38 103 -46 38 -15 39 -17 33 -57 -3 -23 -10 -66 -16 -96 -6 -30 -13
-68 -15 -85 -9 -52 -14 -78 -25 -137 l-11 -57 -52 23 c-68 31 -362 168 -452
211 -38 18 -92 43 -120 55 -202 92 -234 109 -231 127 2 10 7 38 11 63 4 25 9
54 11 65 3 11 7 36 10 55 4 19 7 40 8 45 2 6 7 33 11 60 5 28 9 52 10 55 0 3
7 42 15 86 l13 82 501 200 c276 111 502 201 503 201 1 1 0 -9 -3 -21z m1103 7
c100 -19 178 -60 248 -130 67 -67 94 -112 119 -199 17 -58 23 -181 11 -239
-27 -136 -119 -254 -238 -307 l-48 -21 23 -37 c12 -20 60 -97 105 -170 46 -74
83 -138 83 -143 0 -5 3 -9 8 -9 6 0 32 -47 32 -59 0 -5 -135 -5 -415 -1 -27 0
-34 8 -76 88 -138 262 -177 335 -219 412 -99 179 -120 218 -120 222 0 3 73 5
163 5 178 0 222 5 253 31 66 55 56 159 -19 199 -27 15 -65 17 -269 19 l-236 1
-12 -46 c-7 -25 -14 -56 -16 -69 -3 -12 -25 -107 -50 -210 -25 -103 -47 -194
-49 -202 -2 -8 -11 -46 -20 -85 -9 -38 -19 -80 -21 -92 -2 -12 -8 -33 -13 -45
-5 -13 -9 -27 -10 -33 0 -5 -10 -52 -22 -102 l-21 -93 -36 -1 c-20 0 -111 0
-202 -1 l-165 0 1 29 c1 29 10 100 19 143 13 64 15 77 20 110 3 19 17 96 31
170 14 74 27 144 28 155 2 11 8 47 14 80 6 33 14 78 17 100 4 22 8 45 9 50 3
13 14 71 21 110 3 17 19 110 37 207 l31 177 468 -1 c342 0 486 -3 536 -13z"/>
<path d="M2239 609 c-5 -3 52 -86 127 -185 75 -98 142 -187 149 -197 12 -17
37 -18 331 -18 176 -1 344 -1 374 0 l55 1 0 200 c0 126 -4 200 -10 201 -36 5
-1019 3 -1026 -2z"/>
<path d="M3718 615 c0 0 -2 -91 -3 -202 l-2 -203 91 -1 c483 -3 649 0 662 13
34 36 293 383 288 387 -4 4 -348 6 -1036 6z"/>
</g>
</svg>
