<?xml version="1.0" encoding="utf-8"?>
<!-- Generator: Adobe Illustrator 25.4.1, SVG Export Plug-In . SVG Version: 6.00 Build 0)  -->
<svg version="1.1" id="Layer_1" xmlns="http://www.w3.org/2000/svg" xmlns:xlink="http://www.w3.org/1999/xlink" x="0px" y="0px"
	 viewBox="0 0 454 142" style="enable-background:new 0 0 454 142;" xml:space="preserve">
<style type="text/css">
	.st0{fill:#2DC6E0;}
	.st1{fill:#FFFFFF;}
</style>
<g id="_x32_C-HorizontalComboLogo-Light">
	<g id="wordmark">
		<path class="st0" d="M41.5,71.3l40.4-16.2v0l-3.4,19.1l-24,8.3l20.8,9.5v0.5l-2.9,16.2L37.7,92.8L41.5,71.3z M25,38.7h18.3
			l-12.4,70.2H12.5L25,38.7z"/>
		<path class="st1" d="M326.5,87.4l5.5-31.5h15.4L342.1,86c-1.1,6,2,10.3,8.9,10.3c6.8,0,11.4-4.3,12.4-10.3l5.3-30.1h15.4
			l-5.5,31.4c-2.3,13.1-12.2,22.4-29.9,22.4C331,109.7,324.2,100.5,326.5,87.4z M415.7,108.6l-16.1-29l-5.1,29h-15.2l9.3-52.7h16.5
			l15.4,27.7l4.9-27.7h15.2l-9.3,52.7H415.7z M261.5,95.9h17.4l-3.1,12.9h-5.1v0h-30.4l10.7-62.8h14.6L257.3,96L261.5,95.9
			L261.5,95.9z M325,74.3c0,10.5-6.6,15.9-11.9,17.5l10.5,17h-18.2l-8-15.3h0l-7.8-14.2h13c3.6,0,5.9-2.2,5.9-5.1
			c0-3-2.3-5.1-5.9-5.1h-17.1l-5.6,23.2h-17.6l6.7-37.4h35.5C317.4,55,325,63.8,325,74.3z M142.3,74.9c10.1,2.8,18.1,6.3,18.1,16.3
			v0.2c0,11.2-8.4,17.3-20.7,17.4l0,0h-25.4l2.2-12.5h23.1c3.1,0,4.6-1.4,4.6-3.2V93c0-2-2.8-2.8-8.2-4.4
			c-10.1-2.7-18.1-6.1-18.1-16.4v-0.2c0-10.6,8.3-15.9,19.6-16.2l0,0h30.8c-4.8,2.8-7.9,7-8.8,12.5h-21.2c-2.8,0-4.2,0.4-4.2,1.8
			v0.2C134,72.3,136.9,73.3,142.3,74.9z M183,68.4c-2.8,0-4.2,0.4-4.2,1.8v0.2c0,2,2.9,2.9,8.3,4.5c10.1,2.8,18.1,6.3,18.1,16.3v0.2
			c0,11.2-8.4,17.3-20.7,17.4l0,0H154c4.8-2.8,8.1-7.1,9.3-12.5h21c3.1,0,4.6-1.4,4.6-3.2V93c0-2-2.8-2.8-8.2-4.4
			c-10.1-2.7-18.1-6.1-18.1-16.4v-0.2c0-10.6,8.3-15.9,19.6-16.2l0,0h25.4l-2.2,12.5H183z M243.3,68.4h-19.6l-1.4,8h16.9l-2,11.6
			h-16.9l-1.5,8.4h20l-2.2,12.5h-34.4l0.5-2.8c3.9-3.6,6.1-8.6,6.1-14.7v-0.2c0-3.3-0.7-6.1-2-8.3l4.7-27h34.1L243.3,68.4z
			 M112.8,96.3l-2.2,12.5H76.2l9.3-52.9h38c-4.8,2.8-7.9,7-8.8,12.5H97.8l-1.4,8h16.9l-2,11.6H94.3l-1.5,8.4H112.8z"/>
	</g>
</g>
</svg>
