<svg viewBox="48 24 454 142" xmlns="http://www.w3.org/2000/svg">
  <g id="2C-HorizontalComboLogo-Light">
		<g id="logomark">
			<path d="M145.324,93.636 L139.617,101.145 L132.051,97.701 L135.962,105.956 L115.977,132.257 L100.587,132.257 L100.587,117.449 L94.876,117.449 L94.876,132.257 L79.486,132.257 L59.501,105.956 L63.412,97.701 L55.846,101.145 L50.14,93.636 L57.143,89.395 L51.772,87.773 C55.846,66.096 74.871,49.694 97.732,49.694 C120.591,49.694 139.617,66.096 143.691,87.773 L138.319,89.395 L145.324,93.636 Z M118.926,101.43 L115.398,95.71 C117.202,95.155 119.421,93.352 119.421,89.816 C119.421,86.279 116.854,83.332 112.486,83.332 L100.502,83.332 L97.25,101.43 L102.857,101.43 L106.05,88.117 L111.827,88.117 C113.041,88.117 113.803,88.81 113.803,89.816 C113.803,90.786 113.041,91.515 111.827,91.515 L107.456,91.515 L110.085,96.299 L110.093,96.299 L112.776,101.43 L118.926,101.43 Z M96.945,95.936 L96.945,95.776 L89.93,92.577 L98.051,89.776 L99.208,83.343 L99.208,83.332 L85.566,88.766 L84.283,95.982 L95.964,101.4 L96.945,95.936 Z M75.822,101.43 L82,101.43 L86.198,77.833 L80.02,77.833 L75.822,101.43 Z" fill="#ffffff"></path>
			<path d="M80.345,133.702 L94.66,133.702 L94.66,139.237 L84.551,139.237 L80.345,133.702 Z M100.639,133.702 L114.954,133.702 L110.748,139.237 L100.639,139.237 L100.639,133.702 Z" fill="#2DC6E0"></path>
		</g>
		<g id="wordmark">
			<path d="M180.706,92.47 L212.939,79.574 L212.939,79.601 L210.209,94.865 L191.018,101.512 L207.594,109.106 L207.594,109.485 L205.274,122.447 L177.672,109.593 L180.706,92.47 Z M167.552,66.436 L182.167,66.436 L172.236,122.447 L157.619,122.447 L167.552,66.436 Z" fill="#2DC6E0"></path>
			<path d="M408.154,105.332 L412.574,80.191 L424.843,80.191 L420.624,104.187 C419.778,109.001 422.221,112.441 427.709,112.441 C433.118,112.441 436.77,109.001 437.617,104.187 L441.836,80.191 L454.103,80.191 L449.698,105.257 C447.857,115.725 439.923,123.138 425.827,123.138 C411.728,123.138 406.326,115.725 408.154,105.332 Z M479.36,122.222 L466.512,99.066 L462.442,122.222 L450.323,122.222 L457.716,80.191 L470.899,80.191 L483.17,102.275 L487.052,80.191 L499.168,80.191 L491.779,122.222 L479.36,122.222 Z M356.338,112.124 L370.22,112.124 L367.763,122.394 L363.7,122.394 L363.7,122.395 L339.438,122.395 L347.985,72.305 L359.66,72.305 L352.918,112.134 L356.337,112.134 L356.338,112.124 Z M406.956,94.832 C406.956,103.224 401.705,107.502 397.439,108.819 L405.784,122.393 L391.233,122.393 L384.885,110.218 L384.866,110.218 L378.644,98.864 L388.989,98.864 C391.86,98.864 393.666,97.136 393.666,94.832 C393.666,92.445 391.86,90.8 388.989,90.8 L375.319,90.8 L370.889,109.324 L356.839,109.324 L362.192,79.446 L390.548,79.446 C400.884,79.446 406.956,86.439 406.956,94.832 Z M261.157,95.33 C269.22,97.596 275.625,100.394 275.625,108.328 L275.625,108.478 C275.625,117.392 268.884,122.3 259.081,122.386 L259.079,122.395 L238.797,122.395 L240.548,112.435 L259.005,112.435 C261.493,112.435 262.665,111.351 262.665,109.915 L262.665,109.764 C262.665,108.177 260.403,107.497 256.108,106.288 C248.046,104.172 241.64,101.451 241.64,93.214 L241.64,93.064 C241.64,84.587 248.232,80.368 257.295,80.164 L257.299,80.144 L281.873,80.144 C278.061,82.343 275.597,85.756 274.84,90.104 L257.888,90.104 C255.655,90.104 254.527,90.418 254.527,91.552 L254.527,91.703 C254.527,93.29 256.862,94.046 261.157,95.33 Z M293.624,90.104 C291.391,90.104 290.261,90.418 290.261,91.552 L290.261,91.703 C290.261,93.29 292.598,94.046 296.893,95.33 C304.954,97.596 311.361,100.394 311.361,108.328 L311.361,108.478 C311.361,117.392 304.619,122.3 294.815,122.386 L294.813,122.395 L270.527,122.395 C274.391,120.187 276.997,116.762 277.972,112.435 L294.74,112.435 C297.229,112.435 298.399,111.351 298.399,109.915 L298.399,109.764 C298.399,108.177 296.139,107.497 291.844,106.288 C283.781,104.172 277.376,101.451 277.376,93.214 L277.376,93.064 C277.376,84.587 283.968,80.368 293.031,80.164 L293.034,80.144 L313.316,80.144 L311.564,90.104 L293.624,90.104 Z M341.775,90.104 L326.147,90.104 L325.022,96.502 L338.544,96.502 L336.92,105.736 L323.399,105.736 L322.22,112.435 L338.149,112.435 L336.398,122.395 L308.913,122.395 L309.304,120.176 C312.403,117.29 314.153,113.288 314.153,108.478 L314.153,108.328 C314.153,105.667 313.557,103.492 312.557,101.671 L316.343,80.144 L343.525,80.144 L341.775,90.104 Z M237.643,112.436 L235.892,122.395 L208.407,122.395 L215.837,80.145 L246.136,80.145 C242.325,82.343 239.861,85.757 239.105,90.104 L225.641,90.104 L224.516,96.502 L238.039,96.502 L236.414,105.737 L222.893,105.737 L221.714,112.436 L237.643,112.436 Z" fill="#ffffff"></path>
		</g>
	</g>
</svg>
